<svg id="visual" viewBox="0 0 900 600" width="900" height="600" xmlns="http://www.w3.org/2000/svg" xmlns:xlink="http://www.w3.org/1999/xlink" version="1.1"><path d="M0 25L900 25L900 0L0 0Z" fill="#16000a"></path><path d="M0 61L900 61L900 23L0 23Z" fill="#26161d"></path><path d="M0 103L900 103L900 59L0 59Z" fill="#38242d"></path><path d="M0 157L900 157L900 101L0 101Z" fill="#4b343e"></path><path d="M0 181L900 181L900 155L0 155Z" fill="#5f4550"></path><path d="M0 205L900 205L900 179L0 179Z" fill="#745663"></path><path d="M0 283L900 277L900 203L0 203Z" fill="#8a6877"></path><path d="M0 415L900 397L900 275L0 281Z" fill="#a07a8b"></path><path d="M0 445L900 427L900 395L0 413Z" fill="#b78da0"></path><path d="M0 469L900 451L900 425L0 443Z" fill="#cfa0b5"></path><path d="M0 499L900 487L900 449L0 467Z" fill="#e7b4cb"></path><path d="M0 601L900 601L900 485L0 497Z" fill="#ffc8e1"></path></svg>